<svg width="15" height="15" viewBox="0 0 15 15" fill="none" xmlns="http://www.w3.org/2000/svg">
<path d="M4.92086 4.63781C4.0713 5.35969 3.75997 6.67621 4.49354 7.73238C5.18001 8.72072 6.04472 9.58525 7.03284 10.2714C8.08904 11.0048 9.40551 10.6934 10.1273 9.84382L10.1353 9.84754C11.0573 10.2746 12.0366 10.5674 13.0417 10.7165V12.8063L13.0408 12.8063L13.0386 12.8063C6.72537 12.8153 1.95158 7.98595 1.95834 1.72582V1.72298H4.04783L4.04797 1.72391C4.19716 2.72891 4.48977 3.70732 4.9169 4.62925L4.92086 4.63781ZM13.0408 14.3896H13.8333C14.2706 14.3896 14.625 14.0352 14.625 13.598V10.0337C14.625 9.64134 14.3376 9.30818 13.9496 9.25059L13.2733 9.15023C12.4181 9.0233 11.5854 8.7743 10.8009 8.41086L10.2048 8.13477C9.85946 7.97478 9.44911 8.08323 9.22787 8.39298L8.95806 8.77074C8.72159 9.10182 8.27011 9.20294 7.93593 8.97087C7.10286 8.39239 6.37272 7.66241 5.79398 6.82915C5.56185 6.49494 5.66298 6.0434 5.99412 5.80692L6.3717 5.53728C6.68149 5.31605 6.78996 4.90565 6.62993 4.56024L6.35354 3.96366C5.99009 3.17917 5.7411 2.34661 5.61414 1.49141L5.51374 0.815066C5.45613 0.426991 5.12298 0.139648 4.73065 0.139648H1.16667C0.729449 0.139648 0.375008 0.49409 0.375008 0.931315V1.72411C0.367313 8.85421 5.8456 14.3998 13.0408 14.3896Z" fill="#101010"/>
</svg>
