<svg width="13" height="13" viewBox="0 0 13 13" fill="none" xmlns="http://www.w3.org/2000/svg">
<mask id="path-1-outside-1_1_436" maskUnits="userSpaceOnUse" x="0.0737305" y="0" width="13" height="13" fill="black">
<rect fill="white" x="0.0737305" width="13" height="13"/>
<path d="M9.1266 12C10.467 12 11.3661 11.7586 11.799 11.2823C12.0076 11.0527 12.0982 10.7773 12.0681 10.4637C11.9847 9.58871 10.5315 7.74762 9.52842 7.74762C9.46045 7.74762 9.39503 7.75611 9.33378 7.7731C9.07679 7.84413 8.94475 8.09774 8.80492 8.36612C8.59991 8.75966 8.38803 9.16661 7.76987 9.1667C7.62603 9.1667 7.46342 9.14418 7.28688 9.09992C6.13722 8.81148 3.9242 6.6729 3.65798 5.3551C3.63411 5.23778 4.00571 5.08774 4.25176 4.98852C4.60859 4.84443 4.94562 4.70841 5.02252 4.46781C5.20204 3.90633 4.81191 3.03107 4.38694 2.39925C3.95373 1.75492 3.27713 1.04985 2.67739 1.00337C2.30908 0.974736 1.96024 1.12928 1.67741 1.44464C1.12602 2.05974 0.895109 3.19351 1.04405 4.55525C1.29101 6.81197 3.23335 8.81705 3.31621 8.90165C3.41876 9.01745 5.95442 11.8441 8.44516 11.9805C8.68152 11.9935 8.91071 12 9.1266 12ZM9.52846 7.99136C10.3363 7.99136 11.7458 9.64926 11.8256 10.4869C11.8487 10.7294 11.7793 10.9419 11.6187 11.1186C11.3541 11.4096 10.7071 11.7565 9.12663 11.7565C8.91534 11.7565 8.69044 11.7501 8.45842 11.7375C6.06816 11.6066 3.51978 8.76434 3.49433 8.73563C3.47054 8.71124 1.52387 6.70086 1.28633 4.52907C1.14496 3.23591 1.3537 2.17121 1.85886 1.60747C2.08995 1.34978 2.36895 1.22431 2.65859 1.24656C3.07481 1.27884 3.68812 1.79684 4.18479 2.53556C4.67883 3.27019 4.91655 3.99964 4.79047 4.3942C4.74833 4.52589 4.42242 4.65741 4.16041 4.76309C3.76441 4.92299 3.355 5.08831 3.41914 5.40403C3.68566 6.72293 5.89249 9.0016 7.22769 9.33654C7.42369 9.38565 7.60608 9.41062 7.76981 9.41062C8.53563 9.41054 8.81624 8.87207 9.02099 8.47897C9.14061 8.24925 9.24383 8.05094 9.39871 8.0082C9.4389 7.99698 9.48242 7.99136 9.52846 7.99136Z"/>
</mask>
<path d="M9.1266 12C10.467 12 11.3661 11.7586 11.799 11.2823C12.0076 11.0527 12.0982 10.7773 12.0681 10.4637C11.9847 9.58871 10.5315 7.74762 9.52842 7.74762C9.46045 7.74762 9.39503 7.75611 9.33378 7.7731C9.07679 7.84413 8.94475 8.09774 8.80492 8.36612C8.59991 8.75966 8.38803 9.16661 7.76987 9.1667C7.62603 9.1667 7.46342 9.14418 7.28688 9.09992C6.13722 8.81148 3.9242 6.6729 3.65798 5.3551C3.63411 5.23778 4.00571 5.08774 4.25176 4.98852C4.60859 4.84443 4.94562 4.70841 5.02252 4.46781C5.20204 3.90633 4.81191 3.03107 4.38694 2.39925C3.95373 1.75492 3.27713 1.04985 2.67739 1.00337C2.30908 0.974736 1.96024 1.12928 1.67741 1.44464C1.12602 2.05974 0.895109 3.19351 1.04405 4.55525C1.29101 6.81197 3.23335 8.81705 3.31621 8.90165C3.41876 9.01745 5.95442 11.8441 8.44516 11.9805C8.68152 11.9935 8.91071 12 9.1266 12ZM9.52846 7.99136C10.3363 7.99136 11.7458 9.64926 11.8256 10.4869C11.8487 10.7294 11.7793 10.9419 11.6187 11.1186C11.3541 11.4096 10.7071 11.7565 9.12663 11.7565C8.91534 11.7565 8.69044 11.7501 8.45842 11.7375C6.06816 11.6066 3.51978 8.76434 3.49433 8.73563C3.47054 8.71124 1.52387 6.70086 1.28633 4.52907C1.14496 3.23591 1.3537 2.17121 1.85886 1.60747C2.08995 1.34978 2.36895 1.22431 2.65859 1.24656C3.07481 1.27884 3.68812 1.79684 4.18479 2.53556C4.67883 3.27019 4.91655 3.99964 4.79047 4.3942C4.74833 4.52589 4.42242 4.65741 4.16041 4.76309C3.76441 4.92299 3.355 5.08831 3.41914 5.40403C3.68566 6.72293 5.89249 9.0016 7.22769 9.33654C7.42369 9.38565 7.60608 9.41062 7.76981 9.41062C8.53563 9.41054 8.81624 8.87207 9.02099 8.47897C9.14061 8.24925 9.24383 8.05094 9.39871 8.0082C9.4389 7.99698 9.48242 7.99136 9.52846 7.99136Z" fill="#0A4C7E"/>
<path d="M11.799 11.2823L11.6139 11.1142L11.614 11.1141L11.799 11.2823ZM12.0681 10.4637L11.8192 10.4876L11.8192 10.4874L12.0681 10.4637ZM9.33378 7.7731L9.40061 8.01401L9.40038 8.01407L9.33378 7.7731ZM8.80492 8.36612L8.5832 8.25062L8.58321 8.25061L8.80492 8.36612ZM7.76987 9.1667L7.7699 9.4167H7.76987V9.1667ZM7.28688 9.09992L7.22608 9.34242L7.22604 9.34241L7.28688 9.09992ZM3.65798 5.3551L3.90296 5.30525L3.90303 5.3056L3.65798 5.3551ZM4.25176 4.98852L4.34537 5.22033L4.34526 5.22037L4.25176 4.98852ZM5.02252 4.46781L4.78439 4.39169L4.7844 4.39168L5.02252 4.46781ZM4.38694 2.39925L4.1795 2.53877L4.17947 2.53873L4.38694 2.39925ZM2.67739 1.00337L2.65807 1.25262L2.65801 1.25262L2.67739 1.00337ZM1.67741 1.44464L1.49126 1.27777L1.4913 1.27773L1.67741 1.44464ZM1.04405 4.55525L0.795532 4.58244L0.795531 4.58243L1.04405 4.55525ZM3.31621 8.90165L3.49504 8.7265L3.50338 8.73591L3.31621 8.90165ZM8.44516 11.9805L8.45883 11.7309L8.45889 11.7309L8.44516 11.9805ZM11.8256 10.4869L11.5768 10.5106L11.5768 10.5106L11.8256 10.4869ZM11.6187 11.1186L11.4337 10.9504L11.4337 10.9504L11.6187 11.1186ZM8.45842 11.7375L8.44489 11.9871L8.44476 11.9871L8.45842 11.7375ZM3.49433 8.73563L3.67348 8.56084L3.68142 8.5698L3.49433 8.73563ZM1.28633 4.52907L1.03781 4.55625L1.03781 4.55624L1.28633 4.52907ZM1.85886 1.60747L1.67267 1.44063L1.67274 1.44056L1.85886 1.60747ZM2.65859 1.24656L2.67773 0.997291L2.67792 0.997305L2.65859 1.24656ZM4.18479 2.53556L3.97733 2.67507L3.97732 2.67505L4.18479 2.53556ZM4.79047 4.3942L5.0286 4.4703L5.02857 4.47039L4.79047 4.3942ZM4.16041 4.76309L4.0668 4.53128L4.06689 4.53124L4.16041 4.76309ZM3.41914 5.40403L3.66414 5.35425L3.66419 5.35451L3.41914 5.40403ZM7.22769 9.33654L7.16693 9.57905L7.16686 9.57903L7.22769 9.33654ZM7.76981 9.41062L7.76984 9.66062H7.76981V9.41062ZM9.02099 8.47897L9.24273 8.59443L9.24272 8.59445L9.02099 8.47897ZM9.39871 8.0082L9.46591 8.249L9.46521 8.24919L9.39871 8.0082ZM9.1266 11.75C9.78371 11.75 10.3201 11.6906 10.7383 11.5783C11.1578 11.4656 11.441 11.3045 11.6139 11.1142L11.984 11.4504C11.7241 11.7364 11.3413 11.9341 10.868 12.0612C10.3933 12.1887 9.80988 12.25 9.1266 12.25V11.75ZM11.614 11.1141C11.7744 10.9376 11.8427 10.7322 11.8192 10.4876L12.317 10.4398C12.3536 10.8223 12.2408 11.1678 11.984 11.4504L11.614 11.1141ZM11.8192 10.4874C11.8032 10.3189 11.7156 10.0752 11.5584 9.79123C11.4041 9.51251 11.1939 9.21486 10.9551 8.94228C10.7158 8.6692 10.4536 8.42786 10.1978 8.25678C9.93729 8.08264 9.70788 7.99762 9.52842 7.99762V7.49762C9.85052 7.49762 10.1789 7.64273 10.4757 7.84113C10.777 8.0426 11.0713 8.31622 11.3312 8.61278C11.5915 8.90985 11.8229 9.23653 11.9959 9.5491C12.166 9.85642 12.2913 10.171 12.317 10.44L11.8192 10.4874ZM9.52842 7.99762C9.4812 7.99762 9.4384 8.00352 9.40061 8.01401L9.26695 7.5322C9.35167 7.5087 9.43971 7.49762 9.52842 7.49762V7.99762ZM9.40038 8.01407C9.34031 8.03067 9.28464 8.06981 9.22248 8.14944C9.15663 8.23379 9.09916 8.34243 9.02663 8.48163L8.58321 8.25061C8.65051 8.12143 8.72897 7.96908 8.82835 7.84177C8.93141 7.70974 9.07026 7.58656 9.26718 7.53214L9.40038 8.01407ZM9.02664 8.48163C8.92797 8.67104 8.80632 8.90947 8.61624 9.09355C8.41329 9.29008 8.14324 9.41665 7.7699 9.4167L7.76983 8.9167C8.01465 8.91666 8.15962 8.83971 8.26841 8.73436C8.39007 8.61655 8.47687 8.45474 8.5832 8.25062L9.02664 8.48163ZM7.76987 9.4167C7.60092 9.4167 7.41746 9.3904 7.22608 9.34242L7.34768 8.85743C7.50937 8.89797 7.65114 8.9167 7.76987 8.9167V9.4167ZM7.22604 9.34241C6.89489 9.25932 6.51151 9.05138 6.1288 8.78314C5.7417 8.51183 5.33775 8.16634 4.96374 7.78967C4.5898 7.41308 4.24161 7.00112 3.96828 6.59527C3.69741 6.19307 3.48887 5.78053 3.41293 5.40461L3.90303 5.3056C3.9602 5.58858 4.12813 5.93753 4.38299 6.31596C4.6354 6.69074 4.96224 7.07854 5.31854 7.43737C5.67477 7.79613 6.05628 8.12173 6.41578 8.3737C6.77967 8.62875 7.10404 8.7963 7.34771 8.85744L7.22604 9.34241ZM3.413 5.40495C3.37807 5.23328 3.4954 5.11595 3.53792 5.0773C3.59621 5.0243 3.66966 4.97993 3.73569 4.9446C3.8706 4.8724 4.03844 4.80498 4.15827 4.75666L4.34526 5.22037C4.21903 5.27128 4.07805 5.32848 3.97161 5.38544C3.91697 5.41468 3.88662 5.43603 3.87426 5.44726C3.84613 5.47284 3.92596 5.41827 3.90296 5.30525L3.413 5.40495ZM4.15815 4.7567C4.34162 4.68262 4.49577 4.61976 4.61462 4.5493C4.7367 4.47693 4.77431 4.42324 4.78439 4.39169L5.26065 4.54393C5.19383 4.75297 5.02447 4.88759 4.8696 4.9794C4.71151 5.07313 4.51873 5.15033 4.34537 5.22033L4.15815 4.7567ZM4.7844 4.39168C4.84918 4.18904 4.81778 3.89359 4.69533 3.54216C4.57585 3.19926 4.38326 2.84172 4.1795 2.53877L4.59438 2.25972C4.81558 2.58859 5.03054 2.9846 5.16749 3.37765C5.30147 3.76218 5.37538 4.1851 5.26065 4.54395L4.7844 4.39168ZM4.17947 2.53873C3.97159 2.22954 3.70774 1.90981 3.42941 1.66475C3.14432 1.41373 2.87623 1.26953 2.65807 1.25262L2.6967 0.754115C3.07829 0.783686 3.44837 1.01526 3.75982 1.28948C4.07803 1.56965 4.36908 1.92462 4.59441 2.25976L4.17947 2.53873ZM2.65801 1.25262C2.37975 1.23098 2.10337 1.34413 1.86353 1.61156L1.4913 1.27773C1.81712 0.914426 2.23841 0.718488 2.69676 0.754119L2.65801 1.25262ZM1.86357 1.61152C1.38305 2.14755 1.14645 3.19216 1.29257 4.52806L0.795531 4.58243C0.643765 3.19487 0.868996 1.97193 1.49126 1.27777L1.86357 1.61152ZM1.29257 4.52805C1.40977 5.59903 1.93268 6.62516 2.44998 7.40477C2.96498 8.18091 3.45968 8.69084 3.49482 8.72672L3.13761 9.07658C3.08988 9.02786 2.57198 8.49295 2.03336 7.68122C1.49704 6.87295 0.925295 5.76819 0.795532 4.58244L1.29257 4.52805ZM3.50338 8.73591C3.5493 8.78778 4.19706 9.51058 5.1377 10.2353C6.08636 10.9663 7.29216 11.667 8.45883 11.7309L8.4315 12.2301C7.10743 12.1576 5.80002 11.3768 4.83253 10.6314C3.85701 9.87977 3.18567 9.13133 3.12905 9.06739L3.50338 8.73591ZM8.45889 11.7309C8.69103 11.7436 8.91564 11.75 9.1266 11.75V12.25C8.90579 12.25 8.672 12.2434 8.43144 12.2301L8.45889 11.7309ZM9.52846 7.74136C9.80632 7.74136 10.0973 7.87921 10.3579 8.05698C10.6258 8.23975 10.8952 8.48803 11.1366 8.75855C11.3784 9.02953 11.598 9.32939 11.7637 9.61964C11.9265 9.90463 12.0496 10.2018 12.0745 10.4632L11.5768 10.5106C11.5618 10.3532 11.4788 10.129 11.3295 9.86754C11.1833 9.61135 10.9851 9.33967 10.7636 9.09147C10.5416 8.84282 10.3022 8.62428 10.0761 8.47001C9.84268 8.31075 9.65455 8.24136 9.52846 8.24136V7.74136ZM12.0745 10.4632C12.1041 10.7739 12.0128 11.0567 11.8037 11.2867L11.4337 10.9504C11.5457 10.8272 11.5934 10.6848 11.5768 10.5106L12.0745 10.4632ZM11.8037 11.2867C11.4677 11.6563 10.7314 12.0065 9.12663 12.0065V11.5065C10.6828 11.5065 11.2405 11.1629 11.4337 10.9504L11.8037 11.2867ZM9.12663 12.0065C8.91035 12.0065 8.68092 11.9999 8.44489 11.9871L8.47195 11.4879C8.69997 11.5002 8.92032 11.5065 9.12663 11.5065V12.0065ZM8.44476 11.9871C7.16897 11.9173 5.88253 11.1319 4.93607 10.3956C3.98039 9.65214 3.32556 8.92211 3.30724 8.90145L3.68142 8.5698C3.68132 8.56969 3.68387 8.57256 3.68926 8.5785C3.69447 8.58425 3.70205 8.59257 3.71194 8.60331C3.73171 8.62478 3.76062 8.65585 3.79804 8.69518C3.87288 8.77386 3.98161 8.88547 4.119 9.01929C4.39405 9.28717 4.78264 9.64275 5.24307 10.0009C6.17473 10.7257 7.35761 11.4269 8.47209 11.4879L8.44476 11.9871ZM3.31539 8.91021C3.29717 8.89154 2.79339 8.37074 2.26263 7.57653C1.73461 6.78642 1.16301 5.70094 1.03781 4.55625L1.53485 4.50189C1.64719 5.52899 2.1677 6.5346 2.67835 7.29872C2.93191 7.67814 3.17912 7.99226 3.36419 8.21275C3.45664 8.32289 3.53336 8.40941 3.58733 8.46876C3.6143 8.49842 3.63557 8.52127 3.65025 8.53686C3.65759 8.54465 3.66327 8.55063 3.66719 8.55472C3.66915 8.55677 3.67066 8.55835 3.67171 8.55943C3.67281 8.56057 3.67332 8.56109 3.67327 8.56104L3.31539 8.91021ZM1.03781 4.55624C0.893975 3.24057 1.09536 2.08489 1.67267 1.44063L2.04504 1.7743C1.61204 2.25753 1.39594 3.23126 1.53485 4.5019L1.03781 4.55624ZM1.67274 1.44056C1.94485 1.13712 2.29568 0.967942 2.67773 0.997291L2.63944 1.49582C2.44222 1.48067 2.23504 1.56244 2.04498 1.77438L1.67274 1.44056ZM2.67792 0.997305C2.96576 1.01963 3.27339 1.19914 3.55283 1.43515C3.84087 1.67843 4.1333 2.01092 4.39226 2.39607L3.97732 2.67505C3.7396 2.32148 3.47704 2.02561 3.23021 1.81714C2.97476 1.6014 2.76763 1.50577 2.63925 1.49581L2.67792 0.997305ZM4.39224 2.39605C4.6494 2.77845 4.84389 3.1652 4.95787 3.51495C5.06876 3.85525 5.11567 4.19783 5.0286 4.4703L4.55233 4.3181C4.59134 4.19601 4.58243 3.97659 4.48247 3.66987C4.3856 3.37259 4.21421 3.0273 3.97733 2.67507L4.39224 2.39605ZM5.02857 4.47039C4.99536 4.57417 4.92022 4.64533 4.86738 4.68765C4.80891 4.73449 4.74016 4.77517 4.67383 4.80989C4.54124 4.87929 4.38198 4.94329 4.25392 4.99494L4.06689 4.53124C4.20085 4.47721 4.33554 4.42261 4.44195 4.36691C4.49512 4.33908 4.53212 4.31558 4.55479 4.29741C4.5831 4.27474 4.5645 4.28007 4.55236 4.31801L5.02857 4.47039ZM4.25401 4.99491C4.04746 5.07831 3.87617 5.14895 3.76068 5.22987C3.64857 5.30843 3.66165 5.34203 3.66414 5.35425L3.17415 5.4538C3.11249 5.15031 3.29821 4.94339 3.47377 4.82038C3.64595 4.69974 3.87736 4.60777 4.0668 4.53128L4.25401 4.99491ZM3.66419 5.35451C3.72171 5.63918 3.89028 5.99788 4.14794 6.39067C4.40314 6.77971 4.73531 7.18647 5.10224 7.56535C5.46915 7.9442 5.86678 8.291 6.2509 8.56197C6.63838 8.83531 6.9975 9.02105 7.28852 9.09406L7.16686 9.57903C6.79027 9.48456 6.37284 9.25987 5.96269 8.97054C5.54917 8.67884 5.12809 8.31074 4.74307 7.9132C4.35808 7.51567 4.00513 7.08454 3.72986 6.66492C3.45706 6.24905 3.24983 5.82833 3.17409 5.45354L3.66419 5.35451ZM7.28844 9.09404C7.46908 9.13929 7.63074 9.16062 7.76981 9.16062V9.66062C7.58142 9.66062 7.37829 9.632 7.16693 9.57905L7.28844 9.09404ZM7.76978 9.16062C8.08498 9.16059 8.28541 9.05316 8.43269 8.91181C8.59007 8.76077 8.69442 8.56476 8.79926 8.36348L9.24272 8.59445C9.14281 8.78627 9.00449 9.05605 8.77891 9.27254C8.54325 9.49872 8.22047 9.66057 7.76984 9.66062L7.76978 9.16062ZM8.79925 8.3635C8.85655 8.25347 8.92088 8.12876 8.99363 8.02755C9.06519 7.928 9.17211 7.81139 9.33221 7.76721L9.46521 8.24919C9.47044 8.24775 9.44831 8.25166 9.39963 8.31938C9.35215 8.38544 9.30505 8.47475 9.24273 8.59443L8.79925 8.3635ZM9.33151 7.7674C9.39584 7.74945 9.46217 7.74136 9.52846 7.74136V8.24136C9.50266 8.24136 9.48196 8.24452 9.46591 8.249L9.33151 7.7674Z" fill="#0A4C7E" mask="url(#path-1-outside-1_1_436)"/>
</svg>
